<svg xmlns="http://www.w3.org/2000/svg" viewBox="0 0 168.544 118.112">
  <defs>
    <style>
      .cls-1 {
        fill: none;
      }

      .cls-2 {
        fill: #2865dd;
      }

      .cls-3 {
        font-size: 116px;
        font-family: Courier;
      }
    </style>
  </defs>
  <g id="Group_4" data-name="Group 4" transform="translate(12 -7.345)">
    <g id="Group_1" data-name="Group 1" transform="translate(34.374 26.573)">
      <path id="Path_1" data-name="Path 1" class="cls-1" d="M73.215,32.593,42.953,15.3,13,32.593,73.215,67.487l-30.262,17.6L13,67.487" transform="translate(-5.143 -7.889)"/>
      <path id="Path_2" data-name="Path 2" class="cls-2" d="M48.266,97.819a7.335,7.335,0,0,1-3.706-.926L14.3,79.6a7.68,7.68,0,1,1,7.72-13.278L48.266,81.453l14.822-8.646L14.3,44.706a7.408,7.408,0,0,1-3.706-6.794A8.486,8.486,0,0,1,14.3,31.119L44.56,13.826a8.5,8.5,0,0,1,7.72,0L82.543,31.119A7.68,7.68,0,0,1,74.823,44.4L48.575,29.266,33.753,37.6l48.79,28.1A7.408,7.408,0,0,1,86.248,72.5a8.486,8.486,0,0,1-3.706,6.794L52.28,96.584A8.758,8.758,0,0,1,48.266,97.819Z" transform="translate(-10.456 -12.9)"/>
    </g>
    <text id="_" data-name="{" class="cls-3" transform="translate(-12 94.345)"><tspan x="0" y="0">{</tspan></text>
    <text id="_2" data-name="{" class="cls-3" transform="matrix(-1, 0, 0, 1, 156.544, 96.457)"><tspan x="0" y="0">{</tspan></text>
  </g>
</svg>
